<svg width="243.41" height="76.15" xmlns="http://www.w3.org/2000/svg"><defs><linearGradient x1="0%" y1="50%" x2="100%" y2="50%" id="a"><stop stop-color="#008FD1" offset="0%"/><stop stop-color="#6DB37F" offset="100%"/></linearGradient><linearGradient x1="67.585%" y1="50%" x2="33.318%" y2="50%" id="b"><stop stop-color="#5FB67A" offset="0%"/><stop stop-color="#218ECE" offset="100%"/></linearGradient></defs><g fill="none" fill-rule="evenodd"><path d="M58.304 25.358c3.566-2.305 8.388-5.723 13.815-8.51l.013 25.488c.019 2.969.232 3.76 1.867 5.206.078.084.12.194.119.308a.47.47 0 0 1-.406.466H58.969v-.003a.669.669 0 0 1-.665-.667V25.358ZM99.375 1.462c.177-.041.31-.059.41-.059.209 0 .27.077.28.165.008.066-.02.167-.203.23-16.091 5.63-29.977 12.238-41.558 19.171v-7.576c0-.268.163-.61.399-.61h8.818c8.177-3.685 23.947-9.488 31.854-11.32v-.001ZM144.58.245c-.215-.094-.18-.245.072-.245.032 0 .068.002.107.008 4.66.935 7.804 2.865 9.221 5.84 5.687 11.92-19.49 36.965-57.73 54.839-8.678 4.055-22.783 10.053-27.162 10.546-.718.08-.721-.412-.307-.579 7.758-2.903 15.605-6.377 23.871-10.635 7.302-3.765 19.249-10.729 20.42-11.87.226-.216.026-.223-.069-.164a7.78 7.78 0 0 1-.97.395c-1.586.392-3.33.623-6.458.497-16.602-.682-23.054-8.6-22.708-17.827.349-9.27 7.585-18.708 26.443-18.744 4.55-.006 9.593.926 10.802 1.204.496.154.47.57.45.812l-.881 6.106h-.004a.675.675 0 0 1-.66.562.969.969 0 0 1-.264-.046c-1.74-.599-4.082-1.1-7.332-1.1-9.757 0-14.819 4.976-15.311 10.228-.461 4.828 1.85 12.104 15.17 13.035 3.065.211 6.872-.143 10.059-1.318 0 0 8.026-5.684 10.769-7.984 13.386-11.833 20.155-22.912 16.687-29.641-.848-1.653-2.731-3.241-4.215-3.919ZM32.718 12.783h11.967c.366.007.69.304.69.67v34.196c0 .362-.324.662-.69.667H32.718a.671.671 0 0 1-.656-.667v-2.865c-11.488 9.007-17.617 20.692-14.57 26.997.75 1.554 2 2.812 3.692 3.792.414.284.335.527-.333.385h-.007c-10.751-2.278-9.39-15.714.003-26.89.323-.371.69-.681 1.023-.925l.041-.024c.173-.124-.002-.302-.127-.262-3.45 1.13-19.793.958-19.793-14.066V18.76c-.012-2.973-.231-3.753-1.874-5.201a.482.482 0 0 1-.117-.31c0-.235.18-.429.412-.458h14.976c.358.01.647.301.647.662h.002v19.402c0 12.656 12.956 9.686 16.025 8.767v-28.17c0-.365.297-.662.656-.67v.001Z" fill="url(#a)"/><path d="M180.33 51.6c1.44.78 2.57 1.86 3.39 3.22.82 1.36 1.24 2.89 1.24 4.59 0 1.7-.41 3.26-1.24 4.64-.82 1.38-1.96 2.47-3.39 3.27-1.44.8-3.05 1.2-4.83 1.2-1.78 0-3.39-.39-4.83-1.18a8.738 8.738 0 0 1-3.39-3.27c-.82-1.39-1.24-2.94-1.24-4.65 0-1.71.41-3.23 1.24-4.59a8.825 8.825 0 0 1 3.39-3.22c1.44-.78 3.05-1.17 4.83-1.17 1.78 0 3.39.39 4.83 1.17v-.01Zm-7.19 3.37c-.74.45-1.33 1.07-1.76 1.86-.43.79-.65 1.66-.65 2.61s.22 1.84.66 2.63c.44.79 1.03 1.41 1.76 1.87.73.46 1.53.69 2.4.69.87 0 1.66-.23 2.38-.69.72-.46 1.29-1.08 1.71-1.87.42-.79.62-1.67.62-2.63s-.21-1.82-.62-2.61c-.42-.79-.99-1.41-1.71-1.86-.72-.45-1.52-.67-2.38-.67-.86 0-1.67.22-2.41.67Zm23.16-.35c-1.06-.35-1.94-.52-2.66-.52-.57 0-1.01.1-1.34.31-.32.21-.49.51-.49.91s.14.7.42.96c.28.26.63.47 1.05.62.42.16 1.03.36 1.85.61 1.21.35 2.22.7 3.01 1.05.79.35 1.47.89 2.03 1.61.57.72.85 1.67.85 2.83 0 1.16-.31 2.16-.92 2.98-.62.82-1.46 1.44-2.53 1.86-1.07.42-2.27.62-3.58.62-1.45 0-2.89-.25-4.33-.76s-2.68-1.2-3.73-2.08l1.77-3.57c.88.78 1.93 1.42 3.13 1.92s2.27.75 3.21.75c.68 0 1.22-.12 1.61-.37.39-.25.59-.62.59-1.1 0-.4-.15-.73-.44-1-.29-.27-.66-.48-1.1-.64-.44-.16-1.06-.34-1.86-.56-1.2-.33-2.19-.67-2.97-1.01-.78-.34-1.45-.86-2.01-1.55-.56-.69-.84-1.61-.84-2.76 0-1.08.29-2.03.86-2.84.57-.81 1.39-1.44 2.45-1.88 1.06-.44 2.28-.66 3.68-.66 1.26 0 2.51.18 3.74.54 1.23.36 2.31.84 3.24 1.43l-1.72 3.64c-.93-.55-1.93-1-2.98-1.35l.01.01Zm19.44-2.82c1.41.73 2.5 1.76 3.28 3.08.78 1.32 1.17 2.84 1.17 4.55s-.4 3.24-1.19 4.57c-.79 1.33-1.9 2.36-3.34 3.09s-3.09 1.1-4.95 1.1h-7.36V50.7h7.54c1.83 0 3.45.37 4.85 1.1Zm-2.38 12.08c.68-.42 1.21-1.01 1.6-1.77.38-.76.57-1.64.57-2.62 0-.98-.2-1.88-.61-2.64-.41-.77-.97-1.36-1.68-1.78-.72-.42-1.53-.64-2.45-.64h-2.87v10.08h3.09c.88 0 1.66-.21 2.35-.62v-.01Zm9.1-13.18h4.97l5.07 10.23 5.04-10.23h4.97v17.49h-4.04l-.03-11.08-4.47 9.33h-2.94l-4.49-9.33v11.08h-4.07V50.7h-.01ZM168.52 72.33c.26.14.46.33.6.58.14.25.22.52.22.82 0 .3-.07.57-.22.82s-.35.44-.6.58c-.26.14-.54.22-.85.22-.31 0-.59-.07-.85-.22-.26-.14-.46-.34-.6-.58-.15-.25-.22-.52-.22-.82 0-.3.07-.57.22-.82.15-.24.35-.44.6-.58.25-.14.54-.21.85-.21.31 0 .59.07.85.21Zm-1.37.47c-.16.09-.29.22-.39.39-.1.17-.14.34-.14.54s.05.38.15.54c.1.16.23.29.39.39.16.1.34.14.53.14s.36-.05.52-.14c.16-.09.29-.23.38-.39a1.114 1.114 0 0 0 0-1.08c-.09-.16-.22-.29-.38-.39a.969.969 0 0 0-.52-.14c-.18 0-.37.05-.53.14h-.01Zm4.7.23c.17.1.3.25.4.43.1.18.14.4.14.64s-.05.45-.14.63c-.09.18-.22.32-.39.43-.17.1-.37.15-.59.15-.18 0-.34-.03-.47-.11a.842.842 0 0 1-.34-.31v1.26h-.58v-3.27h.58v.39c.09-.13.2-.24.33-.31.14-.07.29-.11.47-.11.22 0 .42.05.59.15v.03Zm-.24 1.58c.13-.14.19-.31.19-.52 0-.21-.06-.39-.19-.52a.657.657 0 0 0-.48-.2.68.68 0 0 0-.49.2c-.13.13-.19.31-.19.52 0 .21.06.39.19.52s.29.2.49.2.36-.07.48-.2Zm3.15-1.41c.19.22.29.52.29.92v.17h-1.77c.04.17.12.3.24.4.12.1.27.15.45.15.12 0 .24-.02.35-.07.11-.05.21-.11.29-.2l.31.33c-.12.13-.27.23-.44.3-.17.07-.36.11-.57.11-.24 0-.46-.05-.65-.15a.992.992 0 0 1-.43-.43c-.1-.19-.15-.39-.15-.63s.05-.45.15-.64c.1-.19.25-.33.43-.43.19-.1.4-.15.63-.15.38 0 .67.11.86.33l.01-.01Zm-.24.7c0-.18-.06-.32-.17-.42a.64.64 0 0 0-.44-.16c-.17 0-.31.05-.43.15-.11.1-.19.24-.21.42h1.25v.01Zm3.12-.78c.16.17.24.39.24.67v1.5h-.59v-1.33c0-.17-.05-.3-.14-.4-.1-.1-.23-.15-.39-.15-.19 0-.35.07-.46.2a.73.73 0 0 0-.17.49v1.18h-.58v-2.4h.58v.45c.16-.31.45-.46.86-.47.27 0 .49.08.65.25v.01Zm3.49-.39c-.17-.05-.32-.08-.45-.08-.14 0-.26.03-.34.08a.26.26 0 0 0-.13.22c0 .09.03.16.09.22s.13.11.22.14c.09.04.21.08.36.12.21.06.39.13.52.19.14.06.25.16.35.28.1.12.14.28.14.48 0 .2-.05.36-.15.5a.89.89 0 0 1-.43.32c-.18.07-.39.11-.62.11-.24 0-.48-.05-.72-.14-.23-.09-.44-.21-.61-.37l.25-.51c.16.15.34.26.53.34.19.08.38.13.55.13.17 0 .3-.03.39-.1.1-.06.14-.15.14-.26 0-.09-.03-.16-.09-.22a.692.692 0 0 0-.22-.14c-.09-.04-.21-.08-.37-.12-.21-.06-.39-.12-.52-.18a.888.888 0 0 1-.34-.27c-.1-.12-.14-.28-.14-.48 0-.18.05-.34.15-.48.1-.14.23-.24.41-.32.18-.07.38-.11.62-.11.2 0 .4.03.6.09.2.06.38.14.53.24l-.24.52c-.16-.1-.33-.17-.49-.23l.01.03Zm2.73 2.56V75c-.08.1-.19.18-.32.24-.13.05-.28.08-.45.08-.17 0-.31-.03-.44-.1a.588.588 0 0 1-.29-.27.697.697 0 0 1-.1-.38c0-.22.08-.4.24-.53.16-.13.38-.19.67-.19h.7v-.06c0-.14-.05-.25-.14-.33-.09-.08-.23-.12-.4-.12-.23 0-.46.07-.71.22l-.21-.4c.19-.1.36-.18.51-.23.15-.05.33-.07.54-.07.31 0 .55.07.72.22.17.15.26.36.26.63v1.57h-.57l-.01.01Zm-.21-.54c.12-.08.19-.18.2-.29v-.21h-.61c-.16 0-.27.02-.34.07s-.11.12-.11.23c0 .11.04.18.11.24.08.06.18.09.31.09.17 0 .31-.04.43-.12l.01-.01Zm1.46-2.78h.58v3.32h-.58v-3.32Zm3.19 1.23c.19.22.29.52.29.92v.17h-1.77c.04.17.12.3.24.4.12.1.27.15.45.15.12 0 .24-.02.35-.07.11-.05.21-.11.29-.2l.31.33c-.12.13-.27.23-.44.3-.17.07-.36.11-.57.11-.24 0-.46-.05-.65-.15a.992.992 0 0 1-.43-.43c-.1-.19-.15-.39-.15-.63s.05-.45.15-.64c.1-.19.25-.33.43-.43.19-.1.4-.15.63-.15.38 0 .67.11.86.33l.01-.01Zm-.24.7c0-.18-.06-.32-.17-.42a.64.64 0 0 0-.44-.16c-.17 0-.31.05-.43.15-.11.1-.19.24-.21.42h1.25v.01Zm2.09-.52a1.11 1.11 0 0 0-.34-.06c-.1 0-.18.02-.24.05-.06.03-.09.09-.09.16s.04.13.11.17c.07.04.19.08.35.13.17.05.3.1.41.15.11.05.2.12.28.22.08.1.12.22.12.38 0 .23-.09.41-.27.54-.18.13-.41.19-.68.19-.19 0-.37-.03-.54-.09-.18-.06-.33-.14-.45-.25l.2-.41c.233.188.521.293.82.3a.5.5 0 0 0 .26-.06c.06-.04.1-.09.1-.17 0-.08-.04-.15-.11-.19-.07-.04-.2-.09-.36-.14-.16-.05-.29-.09-.39-.14a.755.755 0 0 1-.26-.21.603.603 0 0 1-.11-.37c0-.24.09-.42.26-.54.17-.12.39-.19.65-.19.16 0 .31.02.47.07.15.04.29.11.41.19l-.21.42c-.12-.07-.24-.12-.36-.16l-.03.01Zm3.62 1.91V75c-.08.1-.19.18-.32.24-.13.05-.28.08-.45.08-.17 0-.31-.03-.44-.1a.588.588 0 0 1-.29-.27.697.697 0 0 1-.1-.38c0-.22.08-.4.24-.53.16-.13.38-.19.67-.19h.7v-.06c0-.14-.05-.25-.14-.33-.09-.08-.23-.12-.4-.12-.23 0-.46.07-.71.22l-.21-.4c.19-.1.36-.18.51-.23.15-.05.33-.07.54-.07.31 0 .55.07.72.22.17.15.26.36.26.63v1.57h-.57l-.01.01Zm-.21-.54c.12-.08.19-.18.2-.29v-.21h-.61c-.16 0-.27.02-.34.07s-.11.12-.11.23c0 .11.04.18.11.24.08.06.18.09.31.09.17 0 .31-.04.43-.12l.01-.01Zm3.53-1.63c.16.17.24.39.24.67v1.5h-.59v-1.33c0-.17-.05-.3-.14-.4-.1-.1-.23-.15-.39-.15-.19 0-.35.07-.46.2a.73.73 0 0 0-.17.49v1.18H195v-2.4h.58v.45c.16-.31.45-.46.86-.47.27 0 .49.08.65.25v.01Zm3.2-1.15v3.32h-.58v-.39c-.09.13-.2.24-.33.31-.14.07-.29.11-.47.11-.23 0-.43-.05-.6-.15-.17-.1-.31-.25-.4-.43-.1-.19-.14-.4-.14-.64s.05-.45.14-.63c.09-.18.23-.33.4-.43.17-.1.37-.15.59-.15.18 0 .34.04.48.11.14.07.25.17.34.31v-1.32h.58l-.01-.02Zm-.77 2.66c.13-.14.19-.31.19-.53 0-.22-.06-.39-.19-.53a.627.627 0 0 0-.49-.2c-.2 0-.36.07-.49.2-.13.14-.19.31-.19.53 0 .21.07.39.19.53.13.14.29.2.49.2s.36-.07.49-.2Zm4.78-2.28c.25.13.44.32.58.56.14.24.21.51.21.81 0 .3-.07.57-.21.81-.14.24-.34.42-.59.56-.25.14-.54.2-.86.2h-1.28v-3.14h1.3c.31 0 .59.07.84.2h.01Zm-.31 2.28c.15-.09.27-.21.36-.37.09-.16.13-.34.13-.54s-.04-.38-.13-.54a.94.94 0 0 0-.37-.37c-.16-.09-.33-.13-.53-.13h-.69v2.08h.72c.19 0 .36-.04.52-.13h-.01Zm2.13-2.67c.06.07.09.15.09.25s-.03.18-.09.25-.14.1-.24.1a.31.31 0 0 1-.24-.1c-.07-.07-.09-.15-.09-.25s.03-.19.09-.25.14-.1.24-.1c.1 0 .17.03.24.1Zm-.52.93h.58v2.4h-.58v-2.4Zm2.36.49a1.11 1.11 0 0 0-.34-.06c-.1 0-.18.02-.24.05-.06.03-.09.09-.09.16s.04.13.11.17c.07.04.19.08.35.13.17.05.3.1.41.15.11.05.2.12.28.22.08.1.12.22.12.38 0 .23-.09.41-.27.54-.18.13-.41.19-.68.19-.19 0-.37-.03-.54-.09-.18-.06-.33-.14-.45-.25l.2-.41c.233.188.521.293.82.3a.5.5 0 0 0 .26-.06c.06-.04.1-.09.1-.17 0-.08-.04-.15-.11-.19-.07-.04-.2-.09-.36-.14-.16-.05-.29-.09-.39-.14a.755.755 0 0 1-.26-.21.603.603 0 0 1-.11-.37c0-.24.09-.42.26-.54.17-.12.39-.19.65-.19.16 0 .31.02.47.07.15.04.29.11.41.19l-.21.42c-.12-.07-.24-.12-.36-.16l-.03.01Zm2.5 1.76c-.19.12-.39.17-.6.17a.74.74 0 0 1-.51-.18c-.13-.12-.2-.3-.2-.54v-1.18h-.34v-.43h.34v-.66h.58v.66h.69v.43h-.69v1.08c0 .11.02.19.06.24.04.05.1.07.19.07s.2-.03.34-.1l.13.44h.01Zm1.37-2.14c.14-.08.3-.12.49-.13v.56c-.25-.01-.45.04-.59.17-.15.13-.22.31-.22.53v1.16h-.58v-2.4h.58v.46c.08-.16.19-.27.33-.36l-.01.01Zm1.42-1.04c.06.07.09.15.09.25s-.03.18-.09.25-.14.1-.24.1a.31.31 0 0 1-.24-.1c-.07-.07-.09-.15-.09-.25s.03-.19.09-.25.14-.1.24-.1c.1 0 .17.03.24.1Zm-.52.93h.58v2.4h-.58v-2.4Zm3.3.14c.17.1.3.25.4.43.1.18.14.4.14.64s-.05.45-.14.63c-.09.18-.22.32-.39.43-.17.1-.37.15-.59.15-.18 0-.34-.03-.47-.11a.842.842 0 0 1-.34-.31v.39h-.58v-3.32h.58v1.32c.09-.13.2-.24.33-.31.14-.07.29-.11.47-.11.22 0 .42.05.59.15v.02Zm-.24 1.58c.13-.14.19-.31.19-.52 0-.21-.06-.39-.19-.52a.657.657 0 0 0-.48-.2.68.68 0 0 0-.49.2c-.13.13-.19.31-.19.52 0 .21.06.39.19.52s.29.2.49.2.36-.07.48-.2Zm3.5-1.72v2.4h-.59v-.44c-.16.31-.44.47-.83.47-.27 0-.48-.08-.64-.25-.16-.17-.23-.39-.23-.67v-1.5h.59v1.33c0 .17.05.3.14.39.09.1.22.14.38.14.19 0 .33-.07.44-.2.11-.13.16-.29.16-.49v-1.18h.59-.01Zm2.13 2.25c-.19.12-.39.17-.6.17a.74.74 0 0 1-.51-.18c-.13-.12-.2-.3-.2-.54v-1.18h-.34v-.43h.34v-.66h.58v.66h.69v.43h-.69v1.08c0 .11.02.19.06.24.04.05.1.07.19.07s.2-.03.34-.1l.13.44h.01Zm.98-3.18c.06.07.09.15.09.25s-.03.18-.09.25-.14.1-.24.1a.31.31 0 0 1-.24-.1c-.07-.07-.09-.15-.09-.25s.03-.19.09-.25.14-.1.24-.1c.1 0 .17.03.24.1Zm-.52.93h.58v2.4h-.58v-2.4Zm3.01.14c.19.1.34.24.44.43.1.19.16.4.16.63 0 .23-.05.46-.16.64s-.25.33-.44.43c-.19.1-.41.15-.66.15-.25 0-.47-.05-.66-.15-.19-.1-.34-.24-.45-.43-.11-.19-.16-.4-.16-.64s.05-.45.16-.63.25-.33.45-.43c.19-.1.41-.15.66-.15.25 0 .47.05.66.15Zm-1.15.55c-.13.13-.19.31-.19.52 0 .21.06.39.19.52s.29.2.49.2.36-.07.48-.2c.13-.13.19-.31.19-.52 0-.21-.06-.39-.19-.52a.657.657 0 0 0-.48-.2c-.19 0-.37.07-.49.2Zm4.35-.46c.16.17.24.39.24.67v1.5h-.59v-1.33c0-.17-.05-.3-.14-.4-.1-.1-.23-.15-.39-.15-.19 0-.35.07-.46.2a.73.73 0 0 0-.17.49v1.18H226v-2.4h.58v.45c.16-.31.45-.46.86-.47.27 0 .49.08.65.25v.01Zm2.01-.97h.69l1.04 2.02 1.03-2.02h.69v3.14H233v-2.25l-.98 1.93h-.39l-.98-1.93v2.25h-.55v-3.14Zm5.89.88c.19.1.34.24.44.43.1.19.16.4.16.63 0 .23-.05.46-.16.64s-.25.33-.44.43c-.19.1-.41.15-.66.15-.25 0-.47-.05-.66-.15-.19-.1-.34-.24-.45-.43-.11-.19-.16-.4-.16-.64s.05-.45.16-.63.25-.33.45-.43c.19-.1.41-.15.66-.15.25 0 .47.05.66.15Zm-1.15.55c-.13.13-.19.31-.19.52 0 .21.06.39.19.52s.29.2.49.2.36-.07.48-.2c.13-.13.19-.31.19-.52 0-.21-.06-.39-.19-.52a.657.657 0 0 0-.48-.2c-.19 0-.37.07-.49.2Zm4.57-1.61v3.32h-.58v-.39c-.09.13-.2.24-.33.31-.14.07-.29.11-.47.11-.23 0-.43-.05-.6-.15-.17-.1-.31-.25-.4-.43-.1-.19-.14-.4-.14-.64s.05-.45.14-.63c.09-.18.23-.33.4-.43.17-.1.37-.15.59-.15.18 0 .34.04.48.11.14.07.25.17.34.31v-1.32h.58l-.01-.02Zm-.77 2.66c.13-.14.19-.31.19-.53 0-.22-.06-.39-.19-.53a.627.627 0 0 0-.49-.2c-.2 0-.36.07-.49.2-.13.14-.19.31-.19.53 0 .21.07.39.19.53.13.14.29.2.49.2s.36-.07.49-.2Zm3.38-1.43c.19.22.29.52.29.92v.17h-1.77c.04.17.12.3.24.4.12.1.27.15.45.15.12 0 .24-.02.35-.07.11-.05.21-.11.29-.2l.31.33c-.12.13-.27.23-.44.3-.17.07-.36.11-.57.11-.24 0-.46-.05-.65-.15a.992.992 0 0 1-.43-.43c-.1-.19-.15-.39-.15-.63s.05-.45.15-.64c.1-.19.25-.33.43-.43.19-.1.4-.15.63-.15.38 0 .67.11.86.33l.01-.01Zm-.24.7c0-.18-.06-.32-.17-.42a.64.64 0 0 0-.44-.16c-.17 0-.31.05-.43.15-.11.1-.19.24-.21.42h1.25v.01Zm1.05-1.93h.58v3.32h-.58v-3.32Z" fill="#7A888C" fill-rule="nonzero"/><path d="M18.856 0c2.395.016 4.8.479 7.07 1.413C32.7 4.204 37.25 11.131 37.332 18.426c.036 3.33-.793 6.639-2.235 9.631-1.49 3.089-3.665 5.802-6.057 8.239-1.5 1.528-3.016 3.042-4.525 4.563l-5.86-5.817-5.86 5.817-4.524-4.563c-2.115-2.13-4.041-4.472-5.5-7.103C.729 25.513-.224 21.391.045 17.194.3 13.2 1.97 9.349 4.584 6.333 8.042 2.342 13.058.153 18.186.007L18.602 0h.254Zm2.394 14.71c-2.484-1.622-5.981-.518-6.984 2.294l-.064.194-.075.267c-.398 1.602.015 3.32.772 4.764l.137.252.275.465c.664 1.073 1.48 2.056 2.353 2.97l.378.386.612.616.373-.378c1.067-1.089 2.098-2.224 2.918-3.512l.265-.435.106-.189c1.282-2.35 1.572-5.619-.703-7.432l-.195-.148-.168-.115Z" fill="url(#b)" transform="translate(186.039)"/><path d="m204.69 35.042-5.86 5.817-4.525-4.563-.45-.46c-1.788-1.852-3.424-3.864-4.73-6.084l-.32-.559-.23-.427A21.78 21.78 0 0 1 186.038 19h13.973c.045 1.107.393 2.21.901 3.19l.157.291.275.465c.665 1.073 1.482 2.056 2.354 2.97l.377.386.612.616.001 8.124Z" fill="#218ECE"/><path d="M223.371 19c-.055 2.961-.785 5.892-2.01 8.584l-.222.473-.27.541c-1.379 2.675-3.264 5.064-5.34 7.236l-.447.462-2.26 2.284-2.265 2.279-5.86-5.817-.001-8.124.373-.378c1.067-1.089 2.098-2.224 2.918-3.512l.265-.435.106-.189c.56-1.026.93-2.226.98-3.404h14.033Z" fill="#5FB67A"/><path fill="#505858" fill-rule="nonzero" d="m194.82 36.81 9.885-9.885 9.885 9.885-9.885 9.886z"/></g></svg>